<svg width="23" height="23" viewBox="0 0 23 23" fill="none" xmlns="http://www.w3.org/2000/svg">
<g id="precipitation" opacity="0.88">
<g id="Group">
<path id="Vector" d="M18.4729 15.2818C18.0438 15.2816 17.6216 15.1734 17.2454 14.9672C16.8691 14.7609 16.5508 14.4633 16.3199 14.1016C16.0891 14.4634 15.7709 14.7611 15.3946 14.9674C15.0184 15.1737 14.5962 15.2818 14.1671 15.2818C13.738 15.2818 13.3158 15.1737 12.9395 14.9674C12.5633 14.7611 12.245 14.4634 12.0142 14.1016C11.7835 14.4634 11.4652 14.7611 11.089 14.9674C10.7127 15.1737 10.2905 15.2818 9.86142 15.2818C9.43231 15.2818 9.01013 15.1737 8.63386 14.9674C8.25759 14.7611 7.93937 14.4634 7.70859 14.1016C7.41126 14.5675 6.97084 14.9245 6.45343 15.1188C5.93602 15.3132 5.36953 15.3344 4.83899 15.1795C4.30845 15.0245 3.84248 14.7017 3.51101 14.2594C3.17955 13.8171 3.00047 13.2793 3.00066 12.7265C3.00066 12.6199 3.04304 12.5175 3.11848 12.4421C3.19392 12.3667 3.29624 12.3243 3.40293 12.3243C3.50961 12.3243 3.61193 12.3667 3.68737 12.4421C3.76281 12.5175 3.80519 12.6199 3.80519 12.7265C3.80254 12.9581 3.84586 13.1879 3.93264 13.4026C4.01943 13.6174 4.14795 13.8127 4.31077 13.9774C4.47359 14.1421 4.66746 14.2729 4.88117 14.3621C5.09488 14.4513 5.32417 14.4973 5.55576 14.4973C5.78735 14.4973 6.01663 14.4513 6.23034 14.3621C6.44405 14.2729 6.63792 14.1421 6.80074 13.9774C6.96356 13.8127 7.09208 13.6174 7.17887 13.4026C7.26565 13.1879 7.30897 12.9581 7.30632 12.7265C7.30632 12.6199 7.3487 12.5175 7.42414 12.4421C7.49958 12.3667 7.6019 12.3243 7.70859 12.3243C7.81527 12.3243 7.91759 12.3667 7.99303 12.4421C8.06847 12.5175 8.11085 12.6199 8.11085 12.7265C8.1082 12.9581 8.15152 13.1879 8.2383 13.4026C8.32509 13.6174 8.45361 13.8127 8.61643 13.9774C8.77925 14.1421 8.97312 14.2729 9.18683 14.3621C9.40054 14.4513 9.62983 14.4973 9.86142 14.4973C10.093 14.4973 10.3223 14.4513 10.536 14.3621C10.7497 14.2729 10.9436 14.1421 11.1064 13.9774C11.2692 13.8127 11.3977 13.6174 11.4845 13.4026C11.5713 13.1879 11.6146 12.9581 11.612 12.7265C11.612 12.6199 11.6544 12.5175 11.7298 12.4421C11.8052 12.3667 11.9076 12.3243 12.0142 12.3243C12.1209 12.3243 12.2233 12.3667 12.2987 12.4421C12.3741 12.5175 12.4165 12.6199 12.4165 12.7265C12.4139 12.9581 12.4572 13.1879 12.544 13.4026C12.6307 13.6174 12.7593 13.8127 12.9221 13.9774C13.0849 14.1421 13.2788 14.2729 13.4925 14.3621C13.7062 14.4513 13.9355 14.4973 14.1671 14.4973C14.3987 14.4973 14.628 14.4513 14.8417 14.3621C15.0554 14.2729 15.2492 14.1421 15.4121 13.9774C15.5749 13.8127 15.7034 13.6174 15.7902 13.4026C15.877 13.1879 15.9203 12.9581 15.9176 12.7265C15.9176 12.6199 15.96 12.5175 16.0355 12.4421C16.1109 12.3667 16.2132 12.3243 16.3199 12.3243C16.4266 12.3243 16.5289 12.3667 16.6044 12.4421C16.6798 12.5175 16.7222 12.6199 16.7222 12.7265C16.7195 12.9581 16.7628 13.1879 16.8496 13.4026C16.9364 13.6174 17.0649 13.8127 17.2278 13.9774C17.3906 14.1421 17.5844 14.2729 17.7982 14.3621C18.0119 14.4513 18.2411 14.4973 18.4727 14.4973C18.7043 14.4973 18.9336 14.4513 19.1473 14.3621C19.361 14.2729 19.5549 14.1421 19.7177 13.9774C19.8805 13.8127 20.0091 13.6174 20.0958 13.4026C20.1826 13.1879 20.226 12.9581 20.2233 12.7265C20.2233 12.6199 20.2657 12.5175 20.3411 12.4421C20.4166 12.3667 20.5189 12.3243 20.6256 12.3243C20.7323 12.3243 20.8346 12.3667 20.91 12.4421C20.9855 12.5175 21.0278 12.6199 21.0278 12.7265C21.0271 13.404 20.7577 14.0534 20.2787 14.5325C19.7997 15.0115 19.1503 15.281 18.4729 15.2818V15.2818Z" fill="#AFD1FD"/>
<path id="Vector_2" d="M18.4729 20.0276C18.0438 20.0275 17.6216 19.9192 17.2454 19.7129C16.8691 19.5067 16.5508 19.2089 16.3199 18.8473C16.0892 19.2091 15.771 19.5069 15.3947 19.7132C15.0184 19.9195 14.5962 20.0277 14.1671 20.0277C13.738 20.0277 13.3158 19.9195 12.9395 19.7132C12.5632 19.5069 12.245 19.2091 12.0143 18.8473C11.7835 19.2091 11.4653 19.5069 11.0891 19.7132C10.7128 19.9195 10.2906 20.0277 9.86145 20.0277C9.43233 20.0277 9.01012 19.9195 8.63385 19.7132C8.25757 19.5069 7.93936 19.2091 7.70862 18.8473C7.41146 19.3134 6.97109 19.6706 6.45363 19.8652C5.93618 20.0598 5.36956 20.0812 4.83887 19.9264C4.30818 19.7715 3.84205 19.4486 3.51048 19.0063C3.1789 18.5639 2.99978 18.0259 3 17.4731C3 17.3664 3.04238 17.2641 3.11782 17.1887C3.19326 17.1132 3.29558 17.0708 3.40227 17.0708C3.50896 17.0708 3.61128 17.1132 3.68672 17.1887C3.76216 17.2641 3.80454 17.3664 3.80454 17.4731C3.80189 17.7047 3.8452 17.9345 3.93199 18.1492C4.01877 18.3639 4.14729 18.5593 4.31011 18.724C4.47293 18.8887 4.66681 19.0194 4.88051 19.1086C5.09422 19.1979 5.32351 19.2438 5.5551 19.2438C5.78669 19.2438 6.01598 19.1979 6.22968 19.1086C6.44339 19.0194 6.63727 18.8887 6.80009 18.724C6.9629 18.5593 7.09143 18.3639 7.17821 18.1492C7.26499 17.9345 7.30831 17.7047 7.30566 17.4731C7.30566 17.3664 7.34804 17.2641 7.42348 17.1887C7.49892 17.1132 7.60124 17.0708 7.70793 17.0708C7.81462 17.0708 7.91694 17.1132 7.99238 17.1887C8.06782 17.2641 8.1102 17.3664 8.1102 17.4731C8.10755 17.7047 8.15086 17.9345 8.23765 18.1492C8.32443 18.3639 8.45296 18.5593 8.61577 18.724C8.77859 18.8887 8.97247 19.0194 9.18617 19.1086C9.39988 19.1979 9.62917 19.2438 9.86076 19.2438C10.0923 19.2438 10.3216 19.1979 10.5353 19.1086C10.7491 19.0194 10.9429 18.8887 11.1057 18.724C11.2686 18.5593 11.3971 18.3639 11.4839 18.1492C11.5707 17.9345 11.614 17.7047 11.6113 17.4731C11.6113 17.3664 11.6537 17.2641 11.7291 17.1887C11.8046 17.1132 11.9069 17.0708 12.0136 17.0708C12.1203 17.0708 12.2226 17.1132 12.298 17.1887C12.3735 17.2641 12.4159 17.3664 12.4159 17.4731C12.4132 17.7047 12.4565 17.9345 12.5433 18.1492C12.6301 18.3639 12.7586 18.5593 12.9214 18.724C13.0843 18.8887 13.2781 19.0194 13.4918 19.1086C13.7055 19.1979 13.9348 19.2438 14.1664 19.2438C14.398 19.2438 14.6273 19.1979 14.841 19.1086C15.0547 19.0194 15.2486 18.8887 15.4114 18.724C15.5742 18.5593 15.7027 18.3639 15.7895 18.1492C15.8763 17.9345 15.9196 17.7047 15.917 17.4731C15.917 17.3664 15.9594 17.2641 16.0348 17.1887C16.1102 17.1132 16.2126 17.0708 16.3193 17.0708C16.4259 17.0708 16.5283 17.1132 16.6037 17.1887C16.6791 17.2641 16.7215 17.3664 16.7215 17.4731C16.7189 17.7047 16.7622 17.9345 16.849 18.1492C16.9358 18.3639 17.0643 18.5593 17.2271 18.724C17.3899 18.8887 17.5838 19.0194 17.7975 19.1086C18.0112 19.1979 18.2405 19.2438 18.4721 19.2438C18.7037 19.2438 18.933 19.1979 19.1467 19.1086C19.3604 19.0194 19.5542 18.8887 19.7171 18.724C19.8799 18.5593 20.0084 18.3639 20.0952 18.1492C20.182 17.9345 20.2253 17.7047 20.2226 17.4731C20.2226 17.3664 20.265 17.2641 20.3405 17.1887C20.4159 17.1132 20.5182 17.0708 20.6249 17.0708C20.7316 17.0708 20.8339 17.1132 20.9094 17.1887C20.9848 17.2641 21.0272 17.3664 21.0272 17.4731C21.0263 18.1503 20.7569 18.7995 20.2781 19.2783C19.7992 19.7572 19.1501 20.0267 18.4729 20.0276Z" fill="#9AA1EB"/>
<g id="Group_2">
<path id="Vector_3" d="M13.8167 3.63642L12.2979 2.11791C12.2606 2.08053 12.2163 2.05088 12.1675 2.03065C12.1187 2.01041 12.0664 2 12.0136 2C11.9608 2 11.9085 2.01041 11.8597 2.03065C11.8109 2.05088 11.7666 2.08053 11.7292 2.11791L10.2105 3.63642C10.1351 3.71187 10.0927 3.81419 10.0927 3.92088C10.0927 4.02758 10.1351 4.1299 10.2105 4.20534C10.2859 4.28079 10.3883 4.32317 10.495 4.32317C10.6017 4.32317 10.704 4.28079 10.7794 4.20534L11.6113 3.37345V7.38327C11.6113 7.48996 11.6537 7.59228 11.7291 7.66772C11.8046 7.74316 11.9069 7.78554 12.0136 7.78554C12.1203 7.78554 12.2226 7.74316 12.298 7.66772C12.3735 7.59228 12.4158 7.48996 12.4158 7.38327V3.37345L13.2477 4.20534C13.2851 4.2427 13.3294 4.27233 13.3783 4.29255C13.4271 4.31277 13.4794 4.32317 13.5322 4.32317C13.585 4.32317 13.6373 4.31277 13.6862 4.29255C13.735 4.27233 13.7793 4.2427 13.8167 4.20534C13.854 4.16799 13.8837 4.12364 13.9039 4.07483C13.9241 4.02602 13.9345 3.97371 13.9345 3.92088C13.9345 3.86805 13.9241 3.81574 13.9039 3.76693C13.8837 3.71813 13.854 3.67378 13.8167 3.63642V3.63642Z" fill="#BFFDFF"/>
<path id="Vector_4" d="M5.91284 4.86851C5.8755 4.83113 5.83116 4.80147 5.78235 4.78123C5.73354 4.761 5.68122 4.75058 5.62838 4.75058C5.57554 4.75058 5.52322 4.761 5.47441 4.78123C5.4256 4.80147 5.38126 4.83113 5.34392 4.86851L3.82541 6.38702C3.74996 6.46247 3.70758 6.56479 3.70758 6.67148C3.70758 6.77818 3.74996 6.8805 3.82541 6.95594C3.90085 7.03139 4.00318 7.07377 4.10987 7.07377C4.21656 7.07377 4.31889 7.03139 4.39433 6.95594L5.22622 6.12405V10.1339C5.22622 10.2406 5.26861 10.3429 5.34405 10.4183C5.41949 10.4938 5.52181 10.5361 5.62849 10.5361C5.73518 10.5361 5.8375 10.4938 5.91294 10.4183C5.98838 10.3429 6.03076 10.2406 6.03076 10.1339V6.12405L6.86266 6.95594C6.93854 7.02921 7.04016 7.06973 7.14564 7.06879C7.25111 7.06786 7.352 7.02553 7.42656 6.95093C7.50113 6.87633 7.54342 6.77543 7.54431 6.66995C7.54521 6.56448 7.50464 6.46288 7.43135 6.38702L5.91284 4.86851Z" fill="#BFFDFF"/>
<path id="Vector_5" d="M20.2017 6.38702L18.6832 4.86851C18.6458 4.83113 18.6015 4.80147 18.5527 4.78123C18.5039 4.761 18.4515 4.75058 18.3987 4.75058C18.3459 4.75058 18.2935 4.761 18.2447 4.78123C18.1959 4.80147 18.1516 4.83113 18.1142 4.86851L16.5957 6.38702C16.5573 6.42412 16.5266 6.4685 16.5055 6.51758C16.4845 6.56665 16.4733 6.61944 16.4729 6.67285C16.4724 6.72626 16.4826 6.77923 16.5028 6.82868C16.523 6.87812 16.5529 6.92304 16.5906 6.96081C16.6284 6.99859 16.6733 7.02847 16.7227 7.04871C16.7722 7.06894 16.8251 7.07913 16.8785 7.07868C16.932 7.07823 16.9847 7.06714 17.0338 7.04607C17.0829 7.02499 17.1273 6.99436 17.1644 6.95594L17.9963 6.12405V10.1339C17.9963 10.2406 18.0387 10.3429 18.1141 10.4183C18.1896 10.4938 18.2919 10.5361 18.3986 10.5361C18.5053 10.5361 18.6076 10.4938 18.683 10.4183C18.7585 10.3429 18.8008 10.2406 18.8008 10.1339V6.12405L19.6327 6.95594C19.7082 7.03139 19.8105 7.07377 19.9172 7.07377C20.0239 7.07377 20.1262 7.03139 20.2017 6.95594C20.2771 6.8805 20.3195 6.77818 20.3195 6.67148C20.3195 6.56479 20.2771 6.46247 20.2017 6.38702V6.38702Z" fill="#BFFDFF"/>
<path id="Vector_6" d="M9.84429 8.2554C9.79145 8.25537 9.73913 8.26576 9.69031 8.28596C9.64149 8.30617 9.59713 8.3358 9.55977 8.37316C9.52241 8.41052 9.49278 8.45487 9.47258 8.50369C9.45237 8.55251 9.44199 8.60484 9.44202 8.65767V12.0482C9.44202 12.1549 9.4844 12.2572 9.55984 12.3327C9.63528 12.4081 9.7376 12.4505 9.84429 12.4505C9.95098 12.4505 10.0533 12.4081 10.1287 12.3327C10.2042 12.2572 10.2466 12.1549 10.2466 12.0482V8.6579C10.2466 8.60505 10.2362 8.55272 10.216 8.50389C10.1958 8.45506 10.1662 8.41068 10.1288 8.3733C10.0915 8.33593 10.0471 8.30627 9.99828 8.28604C9.94946 8.26581 9.89713 8.2554 9.84429 8.2554V8.2554Z" fill="#BFFDFF"/>
<path id="Vector_7" d="M14.183 8.2554C14.1302 8.25537 14.0779 8.26576 14.0291 8.28596C13.9802 8.30617 13.9359 8.3358 13.8985 8.37316C13.8612 8.41052 13.8315 8.45487 13.8113 8.50369C13.7911 8.55251 13.7807 8.60484 13.7808 8.65767V12.0482C13.7808 12.1549 13.8232 12.2572 13.8986 12.3327C13.974 12.4081 14.0764 12.4505 14.183 12.4505C14.2897 12.4505 14.3921 12.4081 14.4675 12.3327C14.5429 12.2572 14.5853 12.1549 14.5853 12.0482V8.6579C14.5853 8.60505 14.575 8.55272 14.5548 8.50389C14.5346 8.45506 14.5049 8.41068 14.4676 8.3733C14.4302 8.33593 14.3859 8.30627 14.337 8.28604C14.2882 8.26581 14.2359 8.2554 14.183 8.2554V8.2554Z" fill="#BFFDFF"/>
</g>
</g>
</g>
</svg>
